<svg width="1000" height="1000" viewBox="0 0 1000 1000" fill="none" xmlns="http://www.w3.org/2000/svg">
<path d="M750 10H250C117.452 10 10 117.452 10 250V750C10 882.548 117.452 990 250 990H750C882.548 990 990 882.548 990 750V250C990 117.452 882.548 10 750 10Z" fill="#F3F4F6"/>
<path d="M321.428 392.857C307.302 392.857 293.491 388.668 281.745 380.82C269.999 372.971 260.844 361.815 255.437 348.763C250.031 335.712 248.617 321.349 251.372 307.494C254.129 293.638 260.931 280.91 270.921 270.921C280.91 260.931 293.638 254.129 307.494 251.372C321.349 248.617 335.712 250.031 348.763 255.437C361.815 260.844 372.971 269.999 380.82 281.745C388.668 293.491 392.857 307.302 392.857 321.428V678.571C392.857 692.699 388.668 706.509 380.82 718.255C372.971 730.002 361.815 739.157 348.763 744.563C335.712 749.969 321.349 751.384 307.494 748.627C293.638 745.872 280.91 739.069 270.921 729.079C260.931 719.089 254.129 706.362 251.372 692.507C248.617 678.65 250.031 664.289 255.437 651.237C260.844 638.185 269.999 627.03 281.745 619.181C293.491 611.332 307.302 607.143 321.428 607.143H678.571C692.699 607.143 706.509 611.332 718.255 619.181C730.002 627.03 739.157 638.185 744.563 651.237C749.969 664.289 751.384 678.65 748.627 692.507C745.872 706.362 739.069 719.089 729.079 729.079C719.089 739.069 706.362 745.872 692.507 748.627C678.65 751.384 664.289 749.969 651.237 744.563C638.185 739.157 627.03 730.002 619.181 718.255C611.332 706.509 607.143 692.699 607.143 678.571V321.428C607.143 307.302 611.332 293.491 619.181 281.745C627.03 269.999 638.185 260.844 651.237 255.437C664.289 250.031 678.65 248.617 692.507 251.372C706.362 254.129 719.089 260.931 729.079 270.921C739.069 280.91 745.872 293.638 748.627 307.494C751.384 321.349 749.969 335.712 744.563 348.763C739.157 361.815 730.002 372.971 718.255 380.82C706.509 388.668 692.699 392.857 678.571 392.857H321.428Z" stroke="#6B7280" stroke-width="33.33" stroke-linecap="round" stroke-linejoin="round"/>
<path d="M750 10H250C117.452 10 10 117.452 10 250V750C10 882.548 117.452 990 250 990H750C882.548 990 990 882.548 990 750V250C990 117.452 882.548 10 750 10Z" stroke="#6B7280" stroke-width="20"/>
</svg>
